<svg width="87" height="31" viewBox="0 0 87 31" fill="none" xmlns="http://www.w3.org/2000/svg">
<path d="M0.294922 30V0.78125H9.19336L11.6504 18.5947L14.0908 0.78125H23.0723V30H17.7266V8.94922L14.373 30H9.12695L5.57422 8.94922V30H0.294922ZM32.6348 30.2656C30.2995 30.2656 28.512 29.5628 27.2725 28.1572C26.0439 26.7406 25.4297 24.6986 25.4297 22.0312V8.15234C25.4297 5.65104 26.0384 3.75293 27.2559 2.45801C28.4844 1.16309 30.2773 0.515625 32.6348 0.515625C34.9922 0.515625 36.7796 1.16309 37.9971 2.45801C39.2256 3.75293 39.8398 5.65104 39.8398 8.15234V22.0312C39.8398 24.6986 39.2201 26.7406 37.9805 28.1572C36.752 29.5628 34.9701 30.2656 32.6348 30.2656ZM32.6846 24.8867C33.57 24.8867 34.0127 24.029 34.0127 22.3135V8.05273C34.0127 6.61393 33.5811 5.89453 32.7178 5.89453C31.7438 5.89453 31.2568 6.63053 31.2568 8.10254V22.3467C31.2568 23.2542 31.3675 23.9072 31.5889 24.3057C31.8102 24.693 32.1755 24.8867 32.6846 24.8867ZM44.8867 30L41.2842 0.764648H46.8457L48.9873 20.6533L50.8965 0.764648H56.458L52.8555 30H44.8867Z" fill="white"/>
<path d="M58.168 30V0.78125H69.8555V6.42578H64.1113V12.1201H69.623V17.6152H64.1113V24.3057H70.2373V30H58.168ZM71.3828 30L74.2051 0.78125H84.1162L86.8887 30H81.3604L80.9453 25.2852H77.4258L77.0605 30H71.3828ZM77.8408 20.6201H80.4971L79.2188 5.76172H78.9531L77.8408 20.6201Z" fill="#CBB80E"/>
</svg>
